<svg xmlns="http://www.w3.org/2000/svg" viewBox="0 0 1080.24 458.77"><defs><style>.cls-1{fill:#f1f1f1;}.cls-2{isolation:isolate;}</style></defs><g id="Layer_2" data-name="Layer 2"><g id="Layer_1-2" data-name="Layer 1"><g id="Group_2137" data-name="Group 2137"><path id="Path_604" data-name="Path 604" class="cls-1" d="M590.27,107.41h22.14c-.09-16.72-13-27.78-33.61-27.78-20.26,0-34.57,10.9-34.45,27.12,0,13.31,9.19,20.71,24.29,24l8.49,1.82c9.48,2.08,12.73,4.46,12.81,8.32-.08,4.2-3.91,7.16-11.31,7.16-8.86,0-14.1-4.16-14.48-12h-22C542.27,157.41,556.75,167,579,167c21.59,0,34.52-9.32,34.61-26.12-.09-13-7.82-22.09-26.62-26.13l-7-1.5c-8.07-1.7-11.69-4.07-11.48-8.15,0-3.74,3.16-6.49,10.31-6.49C586.28,98.59,589.82,101.88,590.27,107.41Zm110.48,5.32C698.92,91.6,683.45,79.62,662,79.62c-23,0-41.1,15.31-41.1,43.76s17.64,43.76,41.1,43.76c25,0,37.6-17.3,38.77-31.78l-23.46-.16C676.12,142.48,671,147,662.48,147c-11.27,0-17.8-8-17.8-23.63,0-14.8,6.32-23.62,18-23.62,8.9,0,14,5.24,14.64,13Zm91.84,10.66c0-28.46-18.3-43.76-41.43-43.76-23.3,0-41.43,15.3-41.43,43.76,0,28.28,18.13,43.76,41.43,43.76C774.28,167.14,792.59,151.83,792.59,123.39Zm-23.8,0c0,15.3-6.15,23.62-17.63,23.62s-17.64-8.32-17.64-23.62,6.15-23.63,17.64-23.63,17.63,8.32,17.63,23.63Zm27-24h25.62V166h22.8V99.43h25.62V80.79h-74Zm79.19,0h25.63V166h22.79V99.43H949V80.79h-74ZM975.76,80.79h-16v10a31,31,0,0,1-4.49,16.64l9.49,4.83c5.32-4.66,11-13.31,11-21.47Zm55.56,26.62h22.13c-.08-16.72-13-27.78-33.61-27.78-20.26,0-34.57,10.9-34.44,27.12,0,13.31,9.19,20.71,24.29,24l8.49,1.83c9.48,2.08,12.73,4.45,12.81,8.32-.08,4.2-3.91,7.15-11.31,7.15-8.86,0-14.1-4.16-14.48-12h-22C983.32,157.41,997.8,167,1020,167c21.59,0,34.52-9.32,34.61-26.12-.09-13-7.82-22.09-26.62-26.13l-7-1.5c-8.07-1.7-11.69-4.07-11.48-8.15,0-3.74,3.16-6.49,10.31-6.49,7.49,0,11,3.29,11.48,8.82Z"/><path id="Path_603" data-name="Path 603" class="cls-1" d="M544.35,272h40.1c18.51,0,29.95-10.11,29.95-24.13,0-12-8.86-19.88-19.8-20.3v-.83c9.85-1.95,16.47-9.23,16.47-18.63,0-13-10.32-21.3-29.79-21.3H544.35Zm23.13-18.47v-18h11.15c7,0,11.31,3.33,11.31,9.32,0,5.7-3.87,8.65-11.65,8.65Zm0-32.28v-16.3h9.81c5.74,0,10,2.91,10,8.15S583,221.23,577,221.23Zm76,50.75,4.91-16.31h28.12L681.45,272H706.4l-28.11-85.19H646.67L618.55,272Zm10.15-33.61,8.49-28.12h.66l8.49,28.12Zm102.32-25h22.13c-.08-16.72-13-27.78-33.61-27.78-20.26,0-34.57,10.9-34.44,27.12,0,13.31,9.19,20.71,24.29,24l8.48,1.83c9.49,2.08,12.73,4.45,12.81,8.32-.08,4.2-3.91,7.15-11.31,7.15-8.86,0-14.1-4.16-14.48-12h-22c.09,21.38,14.56,31,36.78,31,21.58,0,34.52-9.32,34.6-26.12-.08-13-7.82-22.09-26.62-26.13l-7-1.5c-8.07-1.7-11.69-4.07-11.48-8.15,0-3.74,3.16-6.49,10.32-6.49C752,204.59,755.52,207.88,756,213.41Zm76.86,0H855c-.08-16.72-13-27.78-33.61-27.78-20.26,0-34.56,10.9-34.44,27.12,0,13.31,9.19,20.71,24.29,24l8.49,1.83c9.48,2.08,12.73,4.45,12.81,8.32-.08,4.2-3.91,7.15-11.31,7.15-8.86,0-14.1-4.16-14.48-12h-22c.08,21.38,14.56,31,36.77,31,21.59,0,34.52-9.32,34.61-26.12-.09-13-7.82-22.09-26.62-26.13l-7-1.5c-8.07-1.7-11.69-4.07-11.48-8.15,0-3.74,3.16-6.49,10.31-6.49,7.49,0,11,3.29,11.49,8.82Z"/><path id="Path_602" data-name="Path 602" class="cls-1" d="M544.35,378h57.57V359.34H567.48V292.79H544.35Zm65.71,0h61.23V359.34h-38.1V344.7H668.3V326.07H633.19V311.43h38.27V292.79h-61.4Zm117.63-58.57h22.13c-.08-16.72-13-27.78-33.61-27.78-20.25,0-34.56,10.9-34.44,27.12,0,13.31,9.19,20.71,24.29,24l8.49,1.82c9.48,2.08,12.73,4.46,12.81,8.32-.08,4.2-3.91,7.16-11.32,7.16-8.86,0-14.1-4.16-14.47-12h-22c.08,21.38,14.56,31,36.77,31,21.59,0,34.52-9.32,34.61-26.13-.08-13-7.82-22.08-26.62-26.12l-7-1.5c-8.07-1.7-11.69-4.07-11.48-8.15,0-3.74,3.16-6.49,10.31-6.49C723.7,310.59,727.24,313.88,727.69,319.41Zm76.87,0h22.13c-.09-16.72-13-27.78-33.61-27.78-20.26,0-34.57,10.9-34.44,27.12,0,13.31,9.19,20.71,24.29,24l8.48,1.83c9.49,2.08,12.73,4.45,12.82,8.32-.09,4.2-3.91,7.15-11.32,7.15-8.86,0-14.1-4.16-14.47-12h-22c.09,21.38,14.56,31,36.77,31,21.59,0,34.53-9.32,34.61-26.12-.08-13-7.82-22.09-26.62-26.13l-7-1.5c-8.07-1.7-11.69-4.07-11.48-8.15,0-3.74,3.16-6.49,10.31-6.49,7.48,0,11,3.29,11.48,8.82Zm113.47,16c0-28.46-18.3-43.76-41.43-43.76-23.3,0-41.43,15.3-41.43,43.76,0,28.28,18.13,43.76,41.43,43.76C899.72,379.14,918,363.83,918,335.39Zm-23.8,0c0,15.3-6.15,23.62-17.63,23.62S859,350.69,859,335.39s6.16-23.63,17.64-23.63S894.23,320.08,894.23,335.39Zm107-42.6H978.09v44.59h-.67l-30.28-44.59H927.5V378h23.13V333.22h.5L981.91,378h19.3ZM1057,319.41h22.13c-.09-16.72-13-27.78-33.61-27.78-20.26,0-34.57,10.9-34.45,27.12,0,13.31,9.2,20.71,24.3,24l8.48,1.83c9.49,2.08,12.73,4.45,12.81,8.32-.08,4.2-3.91,7.15-11.31,7.15-8.86,0-14.1-4.16-14.48-12h-22c.08,21.38,14.56,31,36.77,31,21.59,0,34.53-9.32,34.61-26.12-.08-13-7.82-22.09-26.62-26.13l-7-1.5c-8.07-1.7-11.69-4.07-11.48-8.15,0-3.74,3.16-6.49,10.32-6.49C1053,310.59,1056.49,313.88,1057,319.41Z"/></g><path class="cls-1" d="M351,118.54c-8-14.9-22.3-4.09-22.3-4.09l-1.83,1.22-2.77-4.1,2.45-1.63a4.61,4.61,0,0,0-5-7.45L314.91,107a4.61,4.61,0,0,0,5,7.44l2.59-1.75,2.76,4.1-15.34,10.32L307.17,123l2.5-1.69a4.6,4.6,0,0,0-5-7.44L298,118.32a4.61,4.61,0,0,0,5,7.45l2.52-1.71,2.76,4.08-15.25,10.21-2.73-4,2.46-1.65a4.61,4.61,0,0,0-5-7.45l-6.64,4.48a4.6,4.6,0,0,0,5,7.44l2.57-1.73,2.73,4-15.23,10.24-2.71-4,2.4-1.63a4.61,4.61,0,0,0-5-7.44l-6.63,4.47a4.6,4.6,0,0,0,5,7.44l2.63-1.76,2.71,4-4.28,2.86c-8.76,5.87-6.35,8.58-4.28,16a8,8,0,0,1,.26,4.94,11.19,11.19,0,0,1-2.09,3.17L116.73,342.5,229.41,235.78,342.27,342.5,238.7,227,278,189.79c5.48-5.49,9.62-9.72,16-10.57,5.83-.78,11.18,3.05,17.78-6.63,5-7.35,8.71-17.3,12.32-23.56,4.15-7.19,7.56-9,10.48-9.17,4-.27,9.49-.42,13.38-3.68C352.31,132.49,355.14,126.23,351,118.54Z"/><path class="cls-1" d="M134.7,149c3.61,6.26,7.32,16.21,12.32,23.56,6.6,9.68,11.95,5.85,17.78,6.63,6.36.85,10.5,5.08,16,10.57L215,222.15l9.19-11.36L194.5,177.68a11.44,11.44,0,0,1-2.1-3.17,8.1,8.1,0,0,1,.26-4.94c2.07-7.38,4.48-10.09-4.28-16l-4.27-2.86,2.71-4,2.62,1.76a4.6,4.6,0,0,0,5-7.44l-6.63-4.48a4.61,4.61,0,0,0-5,7.45l2.4,1.62-2.71,4-15.23-10.24,2.73-4,2.57,1.73a4.6,4.6,0,0,0,5-7.44L171,125.21a4.61,4.61,0,0,0-5,7.45l2.46,1.65-2.73,4-15.25-10.21,2.76-4.08,2.52,1.71a4.6,4.6,0,0,0,5-7.44l-6.63-4.47a4.6,4.6,0,0,0-5,7.44l2.5,1.69-2.76,4.07-15.34-10.31,2.76-4.1,2.59,1.75a4.61,4.61,0,0,0,5-7.44l-6.63-4.47a4.61,4.61,0,0,0-5,7.44l2.45,1.64-2.77,4.1L130,114.45s-14.26-10.82-22.3,4.09c-4.14,7.68-1.31,14,3.1,17.64,3.89,3.25,9.36,3.41,13.38,3.68C127.13,140.05,130.55,141.84,134.7,149Z"/><path id="Path_13-2" data-name="Path 13-2" class="cls-1" d="M229.38,0C102.9,0,0,102.9,0,229.38S102.9,458.77,229.38,458.77s229.39-102.9,229.39-229.39S355.87,0,229.38,0Zm0,446C109.93,446,12.75,348.84,12.75,229.38S109.93,12.75,229.38,12.75,446,109.93,446,229.38,348.84,446,229.38,446Z"/><g class="cls-2"><path class="cls-1" d="M97.5,211.07c-5.51,0-8.27,2.33-8.3,5.55-.11,3.5,3.27,5.28,8.62,6.43l5.05,1.15c11.6,2.55,17.95,8.3,18,17.69-.06,11.17-8.73,17.8-23.38,17.8S73.15,253.12,73,239.36H86.59C86.9,245,91,248,97.33,248c5.71,0,9.07-2.5,9.13-6.09-.06-3.3-3-5.05-9.42-6.55l-6.15-1.43c-10.16-2.33-16.42-7.36-16.39-16.29-.09-10.94,9.59-18.26,23-18.26,13.67,0,22.43,7.44,22.54,18.44H106.46C106.09,213.57,103,211.07,97.5,211.07Z"/></g><g class="cls-2"><path class="cls-1" d="M345,199.91h13.79v45.84H382.5V257H345Z"/></g><g class="cls-2"><path class="cls-1" d="M210.93,326.5h24.53c13.21,0,20,6,20,14.87,0,6.72-4.54,11.4-11,12.75v.58a13.65,13.65,0,0,1,13.3,14.15c0,9.51-7.47,16.46-20.48,16.46H210.93ZM233,350.68c4.65,0,8-2.42,8-6.55,0-3.91-3-6.35-7.75-6.35h-8.1v12.9Zm.92,23.17c6.14,0,9-2.47,9-6.63,0-4.51-3.33-7.38-8.76-7.38h-9v14Z"/></g></g></g></svg>