<?xml version="1.0" encoding="utf-8"?>
<!-- Generator: Adobe Illustrator 24.3.0, SVG Export Plug-In . SVG Version: 6.00 Build 0)  -->
<svg version="1.1" xmlns="http://www.w3.org/2000/svg" xmlns:xlink="http://www.w3.org/1999/xlink" x="0px" y="0px"
	 viewBox="0 0 458.77 458.77" style="enable-background:new 0 0 458.77 458.77;" xml:space="preserve">
<style type="text/css">
	.st0{opacity:0.158;}
	.st1{fill:none;}
	.st2{fill:none;stroke:#000000;}
	.st3{opacity:0.158;fill:none;stroke:#000000;enable-background:new    ;}
	.st4{fill:none;stroke:#000000;stroke-width:1.413;}
	.st5{fill:#FFFFFF;}
	.st6{fill:#1F1F1F;}
	.st7{fill:#FC5244;}
	.st8{enable-background:new    ;}
	.st9{fill:#F1F1F1;}
	.st10{clip-path:url(#SVGID_2_);fill:#FC5244;}
	.st11{clip-path:url(#SVGID_4_);fill:#FC5244;}
	.st12{clip-path:url(#SVGID_4_);fill:#1F1F1F;}
	.st13{fill:#525252;}
</style>
<g id="Grid">
</g>
<g id="Layer_1">
	<g>
		<g>
			<path class="st9" d="M351,118.54c-8.04-14.9-22.3-4.09-22.3-4.09l-1.83,1.23l-2.77-4.1l2.45-1.64c1.73-1.87,1.62-4.78-0.25-6.51
				c-1.28-1.19-3.13-1.55-4.77-0.93l-6.63,4.47c-1.73,1.87-1.62,4.78,0.24,6.51c1.28,1.19,3.13,1.55,4.77,0.93l2.59-1.75l2.76,4.1
				l-15.34,10.32l-2.76-4.08l2.5-1.69c1.74-1.86,1.64-4.77-0.22-6.51c-1.29-1.21-3.15-1.57-4.8-0.94l-6.63,4.47
				c-1.74,1.86-1.64,4.77,0.22,6.51c1.29,1.2,3.15,1.57,4.8,0.94l2.52-1.71l2.76,4.08l-15.25,10.21l-2.73-4.03l2.46-1.65
				c1.74-1.86,1.64-4.77-0.21-6.51c-1.29-1.21-3.15-1.57-4.8-0.94l-6.64,4.48c-1.74,1.86-1.64,4.77,0.22,6.51
				c1.29,1.21,3.16,1.57,4.8,0.93l2.57-1.73l2.73,4.04l-15.22,10.24l-2.72-4.03l2.4-1.63c1.73-1.87,1.62-4.78-0.24-6.51
				c-1.28-1.19-3.13-1.55-4.77-0.93l-6.63,4.48c-1.74,1.85-1.65,4.76,0.2,6.5c1.29,1.21,3.16,1.58,4.81,0.94l2.62-1.76l2.71,4.02
				l-4.27,2.85c-8.76,5.88-6.35,8.58-4.28,15.96c0.6,1.58,0.69,3.31,0.26,4.94c-0.52,1.17-1.22,2.24-2.09,3.17L116.73,342.5
				l112.68-106.72L342.27,342.5L238.7,226.98l39.26-37.19c5.48-5.49,9.62-9.72,15.98-10.57c5.82-0.78,11.18,3.05,17.77-6.64
				c5-7.34,8.72-17.3,12.33-23.56c4.14-7.19,7.56-8.98,10.47-9.17c4.02-0.27,9.49-0.42,13.38-3.67
				C352.31,132.49,355.14,126.23,351,118.54z"/>
			<path class="st9" d="M134.7,149.03c3.61,6.26,7.33,16.22,12.33,23.56c6.59,9.69,11.95,5.86,17.77,6.64
				c6.36,0.85,10.5,5.08,15.98,10.57L215,222.15l9.19-11.35l-29.69-33.12c-0.87-0.93-1.58-2-2.09-3.17
				c-0.43-1.63-0.34-3.36,0.26-4.94c2.07-7.38,4.48-10.09-4.28-15.96l-4.27-2.85l2.71-4.02l2.62,1.76c1.65,0.64,3.52,0.28,4.81-0.94
				c1.85-1.74,1.94-4.65,0.2-6.5l-6.63-4.48c-1.64-0.62-3.49-0.26-4.77,0.93c-1.87,1.73-1.97,4.65-0.24,6.51l2.4,1.63l-2.72,4.02
				l-15.22-10.24l2.73-4.04l2.57,1.73c1.65,0.64,3.51,0.28,4.8-0.93c1.86-1.74,1.95-4.65,0.22-6.5l-6.64-4.48
				c-1.65-0.63-3.51-0.27-4.8,0.94c-1.86,1.74-1.95,4.66-0.21,6.51l2.46,1.65l-2.73,4.03l-15.25-10.21l2.76-4.08l2.52,1.71
				c1.65,0.63,3.51,0.27,4.8-0.94c1.86-1.74,1.95-4.65,0.22-6.51l-6.63-4.47c-1.65-0.63-3.51-0.27-4.8,0.94
				c-1.86,1.74-1.95,4.65-0.22,6.51l2.5,1.69l-2.76,4.07l-15.34-10.32l2.76-4.1l2.59,1.75c1.64,0.62,3.49,0.26,4.77-0.93
				c1.87-1.73,1.97-4.65,0.24-6.51l-6.63-4.47c-1.64-0.62-3.49-0.26-4.77,0.93c-1.87,1.73-1.97,4.65-0.24,6.51l2.45,1.64l-2.77,4.1
				l-1.83-1.23c0,0-14.26-10.81-22.3,4.09c-4.14,7.69-1.31,13.95,3.1,17.65c3.89,3.25,9.36,3.41,13.38,3.67
				C127.13,140.05,130.55,141.84,134.7,149.03z"/>
		</g>
		<path id="Path_13-2_7_" class="st9" d="M229.38,0C102.9,0,0,102.9,0,229.38s102.9,229.39,229.38,229.39
			s229.38-102.9,229.38-229.39S355.87,0,229.38,0z M229.38,446.02c-119.45,0-216.63-97.18-216.63-216.63S109.93,12.75,229.38,12.75
			c119.45,0,216.63,97.18,216.63,216.63S348.84,446.02,229.38,446.02z"/>
		<g class="st8">
			<path class="st9" d="M97.5,211.07c-5.51,0-8.27,2.33-8.3,5.54c-0.12,3.5,3.27,5.28,8.61,6.43l5.05,1.15
				c11.6,2.56,17.95,8.3,18.01,17.69c-0.06,11.17-8.73,17.8-23.38,17.8c-14.79,0-24.35-6.58-24.52-20.33h13.61
				c0.32,5.66,4.45,8.59,10.74,8.59c5.71,0,9.07-2.5,9.13-6.09c-0.06-3.3-2.96-5.05-9.42-6.55l-6.15-1.44
				c-10.17-2.33-16.43-7.35-16.4-16.28c-0.09-10.94,9.59-18.26,23.03-18.26c13.67,0,22.43,7.44,22.54,18.44h-13.61
				C106.09,213.57,103.04,211.07,97.5,211.07z"/>
		</g>
		<g class="st8">
			<path class="st9" d="M344.99,199.91h13.78v45.84h23.73v11.19h-37.51V199.91z"/>
		</g>
		<g class="st8">
			<path class="st9" d="M210.93,326.5h24.52c13.21,0,20.04,6,20.04,14.88c0,6.72-4.54,11.4-11,12.75v0.57
				c7.12,0.32,13.3,5.66,13.3,14.16c0,9.51-7.47,16.46-20.48,16.46h-26.39V326.5z M233.02,350.68c4.65,0,7.98-2.41,7.98-6.55
				c0-3.91-3.01-6.35-7.75-6.35h-8.1v12.89H233.02z M233.94,373.85c6.15,0,9.02-2.47,9.02-6.63c0-4.51-3.33-7.38-8.76-7.38h-9.05
				v14.01H233.94z"/>
		</g>
	</g>
</g>
</svg>
